<svg xmlns="http://www.w3.org/2000/svg" width="128" height="128" viewBox="0 0 128 128">
  <title>BUDGET</title>
  <g>
    <path d="M115.415,49.5H80.064A64.618,64.618,0,0,0,66.293,37.849V31.625L74.63,12.917a1.75,1.75,0,0,0-.519-2.089c-.326-.256-8.164-6.271-23.035-6.271S28.367,10.572,28.04,10.828a1.749,1.749,0,0,0-.518,2.089l8.336,18.708V37.86c-4.843,3-27.608,18.629-28.987,47.816a34.638,34.638,0,0,0,23.661,34.713,66.9,66.9,0,0,0,20.544,3.054,69.344,69.344,0,0,0,16.358-1.883,5.737,5.737,0,0,0,4.245,1.883h43.736a5.759,5.759,0,0,0,5.753-5.753V55.257A5.759,5.759,0,0,0,115.415,49.5ZM39.358,33H62.793v4.1H39.358ZM51.076,8.057c10.524,0,17.235,3.288,19.753,4.791L63.407,29.5H38.745l-7.424-16.66C33.822,11.336,40.487,8.057,51.076,8.057Zm0,111.886a63.453,63.453,0,0,1-19.471-2.885A31.133,31.133,0,0,1,10.367,85.841C11.715,57.31,34.874,42.514,38.079,40.6H64.074a59.7,59.7,0,0,1,11.178,8.9H71.679a5.759,5.759,0,0,0-5.753,5.753v3.734a25.949,25.949,0,1,0,0,42.562V117.69a5.917,5.917,0,0,0,.036.628A66.25,66.25,0,0,1,51.076,119.943Zm0-58.021a18.351,18.351,0,1,0,14.85,29.086v6.07a22.45,22.45,0,1,1,0-33.611v6.069A18.319,18.319,0,0,0,51.076,61.922Zm14.85,18.351a14.85,14.85,0,1,1-14.85-14.851A14.867,14.867,0,0,1,65.926,80.273Zm51.742,37.417a2.255,2.255,0,0,1-2.253,2.253H71.679a2.255,2.255,0,0,1-2.253-2.253V55.257A2.256,2.256,0,0,1,71.679,53h43.736a2.255,2.255,0,0,1,2.253,2.253Z"/>
    <path d="M112.39,56.542H74.705a1.75,1.75,0,0,0-1.75,1.75v14.2a1.751,1.751,0,0,0,1.75,1.75H112.39a1.751,1.751,0,0,0,1.75-1.75v-14.2A1.75,1.75,0,0,0,112.39,56.542Zm-1.75,14.2H76.455v-10.7H110.64Z"/>
    <path d="M97.551,77.772H89.544a1.751,1.751,0,0,0-1.75,1.75v7.029a1.751,1.751,0,0,0,1.75,1.75h8.007a1.751,1.751,0,0,0,1.75-1.75V79.522A1.751,1.751,0,0,0,97.551,77.772ZM95.8,84.8H91.294V81.272H95.8Z"/>
    <path d="M112.39,77.772h-8.007a1.75,1.75,0,0,0-1.75,1.75v7.029a1.75,1.75,0,0,0,1.75,1.75h8.007a1.751,1.751,0,0,0,1.75-1.75V79.522A1.751,1.751,0,0,0,112.39,77.772ZM110.64,84.8h-4.507V81.272h4.507Z"/>
    <path d="M82.712,77.772H74.705a1.751,1.751,0,0,0-1.75,1.75v7.029a1.751,1.751,0,0,0,1.75,1.75h8.007a1.751,1.751,0,0,0,1.75-1.75V79.522A1.751,1.751,0,0,0,82.712,77.772ZM80.962,84.8H76.455V81.272h4.507Z"/>
    <path d="M97.551,91.829H89.544a1.751,1.751,0,0,0-1.75,1.75v7.028a1.75,1.75,0,0,0,1.75,1.75h8.007a1.75,1.75,0,0,0,1.75-1.75V93.579A1.751,1.751,0,0,0,97.551,91.829ZM95.8,98.857H91.294V95.329H95.8Z"/>
    <path d="M112.39,91.829h-8.007a1.75,1.75,0,0,0-1.75,1.75v21.086a1.75,1.75,0,0,0,1.75,1.75h8.007a1.751,1.751,0,0,0,1.75-1.75V93.579A1.751,1.751,0,0,0,112.39,91.829Zm-1.75,21.086h-4.507V95.329h4.507Z"/>
    <path d="M82.712,91.829H74.705a1.751,1.751,0,0,0-1.75,1.75v7.028a1.75,1.75,0,0,0,1.75,1.75h8.007a1.75,1.75,0,0,0,1.75-1.75V93.579A1.751,1.751,0,0,0,82.712,91.829Zm-1.75,7.028H76.455V95.329h4.507Z"/>
    <path d="M97.551,105.886H89.544a1.751,1.751,0,0,0-1.75,1.75v7.029a1.751,1.751,0,0,0,1.75,1.75h8.007a1.751,1.751,0,0,0,1.75-1.75v-7.029A1.751,1.751,0,0,0,97.551,105.886Zm-1.75,7.029H91.294v-3.529H95.8Z"/>
    <path d="M82.712,105.886H74.705a1.751,1.751,0,0,0-1.75,1.75v7.029a1.751,1.751,0,0,0,1.75,1.75h8.007a1.751,1.751,0,0,0,1.75-1.75v-7.029A1.751,1.751,0,0,0,82.712,105.886Zm-1.75,7.029H76.455v-3.529h4.507Z"/>
    <path d="M52.437,78.67V73.337a9.269,9.269,0,0,1,4.029,2.127l1.928-2.61a10.547,10.547,0,0,0-5.957-2.637V68.458H49.856v1.73c-3.489.426-5.843,2.78-5.843,5.844,0,3.347,2.354,4.595,5.843,5.5v5.532a9.7,9.7,0,0,1-4.566-2.44l-2.043,2.525a11.629,11.629,0,0,0,6.609,3.035v1.9h2.581V90.271c4.114-.283,6.468-2.666,6.468-5.928C58.905,80.882,56.324,79.549,52.437,78.67Zm-2.581-.681c-1.531-.539-2.269-1.135-2.269-2.269a2.678,2.678,0,0,1,2.269-2.44Zm2.581,9.247V82.187c2.015.6,2.922,1.191,2.922,2.5C55.359,85.931,54.367,87.009,52.437,87.236Z"/>
  </g>
</svg>
