<svg viewBox="32.22 71.15 367.31899999999996 346.0770260223048" preserveAspectRatio="xMidYMid meet" version="1.0" xmlns="http://www.w3.org/2000/svg" style="max-height: 500px" width="367.31899999999996" height="346.0770260223048">  <g stroke="none" fill="#145ccc" transform="translate(0.000000,1431.000000) scale(0.100000,-0.100000)"> <path d="M1810 13579 c-149 -20 -245 -40 -278 -58 -11 -6 -32 -11 -46 -11 -14 0 -27 -4 -30 -9 -3 -5 -17 -12 -30 -15 -23 -6 -116 -46 -196 -84 -19 -9 -41 -23 -48 -29 -7 -7 -17 -13 -22 -13 -12 0 -89 -52 -180 -121 -78 -59 -241 -221 -300 -299 -19 -25 -39 -50 -45 -57 -5 -7 -16 -19 -22 -27 -7 -8 -13 -17 -13 -20 0 -3 -12 -24 -27 -48 -58 -89 -118 -208 -128 -251 -4 -15 -11 -30 -16 -33 -5 -3 -9 -13 -9 -22 0 -9 -6 -29 -14 -43 -7 -14 -16 -43 -21 -65 -4 -21 -10 -43 -13 -49 -10 -14 -30 -124 -43 -230 -13 -106 -6 -466 10 -508 6 -15 15 -51 20 -80 13 -72 30 -136 47 -174 8 -17 14 -36 14 -42 0 -12 20 -57 67 -156 37 -76 44 -88 86 -153 15 -24 27 -45 27 -48 0 -3 6 -11 13 -19 6 -7 22 -26 34 -42 172 -226 349 -379 579 -500 317 -167 684 -231 1034 -180 140 20 274 52 353 85 16 7 33 12 38 12 5 0 17 4 27 9 9 5 63 32 120 60 84 41 230 129 252 151 3 3 28 23 55 44 125 97 302 298 387 441 44 73 118 216 118 228 0 5 6 23 14 40 57 129 93 293 108 491 l11 148 83 85 c70 73 84 93 98 143 15 54 15 63 0 127 -35 141 -118 228 -295 307 -27 13 -42 30 -63 74 -15 31 -33 66 -39 77 -57 98 -75 126 -104 164 -24 32 -33 54 -33 82 0 81 -22 138 -79 207 -31 37 -71 86 -89 109 -40 51 -78 72 -158 88 -69 14 -178 4 -231 -21 -18 -8 -50 -22 -70 -32 -37 -17 -103 -62 -133 -92 -33 -32 -110 -139 -110 -152 0 -7 -7 -24 -16 -37 -12 -17 -17 -47 -17 -115 -1 -105 9 -128 95 -235 95 -116 119 -140 148 -146 17 -4 32 -11 35 -16 4 -5 46 -9 94 -9 98 0 166 19 258 71 63 36 180 147 212 202 13 20 28 37 36 37 14 0 57 -58 84 -115 5 -11 21 -37 35 -58 14 -21 26 -42 26 -48 0 -6 -26 -21 -57 -35 -76 -34 -203 -160 -221 -220 -31 -106 10 -228 109 -324 66 -64 73 -70 119 -91 89 -41 113 -49 150 -49 61 0 67 -12 57 -126 -8 -101 -28 -213 -52 -294 -7 -25 -16 -60 -20 -77 -3 -18 -11 -35 -16 -38 -5 -4 -9 -14 -9 -23 0 -24 -112 -249 -159 -320 -97 -145 -237 -299 -356 -390 -33 -25 -62 -49 -65 -53 -12 -16 -155 -102 -240 -144 -310 -152 -609 -196 -1005 -146 -44 6 -91 15 -105 19 -14 5 -52 17 -85 27 -51 15 -160 56 -230 86 -11 4 -42 22 -70 39 -27 16 -57 33 -65 37 -73 35 -250 175 -346 274 -88 92 -196 233 -241 316 -6 12 -18 35 -27 50 -27 50 -86 180 -86 190 0 6 -7 24 -15 39 -8 16 -15 39 -15 51 0 12 -4 24 -9 28 -6 3 -13 27 -16 53 -3 26 -10 55 -16 65 -12 21 -27 158 -36 311 -5 104 4 212 28 331 5 28 13 68 18 90 10 55 45 160 76 230 30 69 87 182 105 210 11 17 23 37 27 45 36 78 303 371 388 426 33 21 38 25 74 54 13 11 30 20 37 20 7 0 14 4 16 9 5 13 147 91 233 126 17 7 47 20 68 29 21 9 46 16 55 16 10 0 22 4 28 10 10 10 41 18 154 40 30 7 80 17 110 23 72 16 379 15 450 0 30 -7 80 -17 110 -23 130 -26 156 -32 164 -41 6 -5 17 -9 25 -9 17 0 127 -43 138 -54 11 -11 38 -7 76 12 l37 18 -42 18 c-24 10 -56 25 -72 32 -16 8 -33 14 -37 14 -4 0 -20 5 -36 12 -73 30 -216 66 -313 79 -41 5 -99 14 -129 19 -79 14 -206 11 -361 -11z m1318 -299 c84 -51 116 -144 86 -246 -32 -111 -141 -235 -260 -294 -65 -32 -75 -34 -175 -35 -127 0 -160 14 -208 86 -57 87 -40 208 45 320 24 31 59 69 79 85 20 16 42 34 48 39 13 10 57 33 117 59 83 36 197 30 268 -14z m195 -252 c11 -48 -6 -142 -30 -170 -8 -9 -12 -21 -9 -26 3 -5 -1 -15 -9 -22 -8 -7 -15 -18 -15 -24 -1 -6 -18 -25 -38 -43 -118 -101 -148 -123 -169 -123 -13 0 -26 -7 -29 -15 -4 -9 -19 -15 -42 -15 -19 0 -44 -8 -54 -17 -13 -12 -21 -14 -30 -5 -8 8 -15 8 -28 -1 -14 -8 -22 -8 -34 2 -8 7 -20 10 -26 6 -6 -4 -16 -2 -23 3 -7 6 -23 12 -37 14 -14 1 -25 9 -25 17 0 11 17 15 67 16 38 1 74 8 83 15 8 6 18 9 24 6 11 -7 61 14 61 26 0 4 11 8 24 8 13 0 43 16 67 35 24 20 65 52 91 72 26 20 54 51 62 68 8 17 25 42 38 56 13 14 22 33 20 43 -2 10 1 23 7 29 6 6 11 21 11 32 0 40 34 50 43 13z m353 -530 c161 -78 259 -280 193 -393 -33 -56 -87 -85 -156 -85 -226 0 -431 285 -321 446 35 50 64 63 146 64 62 0 82 -5 138 -32z m-359 -194 c3 -56 12 -84 34 -113 11 -14 33 -43 49 -64 29 -39 111 -107 128 -107 5 0 15 -7 22 -14 6 -8 37 -20 68 -27 31 -6 68 -16 82 -21 38 -14 6 -28 -67 -28 -59 0 -83 7 -172 49 -37 18 -141 116 -141 133 0 6 -6 19 -13 27 -35 41 -53 166 -29 194 23 26 36 16 39 -29z"/> <path d="M3032 13184 c-19 -13 -28 -13 -56 -3 -30 11 -41 10 -76 -6 -39 -18 -80 -67 -80 -97 0 -9 7 -21 15 -28 24 -20 18 -39 -30 -86 -48 -47 -69 -54 -79 -28 -9 24 -7 74 3 74 14 0 25 40 14 51 -5 5 -19 -4 -33 -23 -28 -38 -31 -104 -6 -142 15 -23 15 -27 1 -32 -19 -8 -20 -34 -1 -34 7 0 19 7 26 15 15 18 51 20 68 3 16 -16 81 4 115 36 36 33 44 71 23 107 -17 29 -17 29 21 74 45 52 63 57 63 16 0 -35 13 -46 30 -26 8 10 10 30 6 59 -4 27 -3 47 4 51 12 7 14 35 2 35 -4 0 -18 -7 -30 -16z m-67 -34 c11 -18 -5 -45 -44 -72 -33 -24 -41 -26 -51 -13 -17 21 -4 51 33 74 36 23 53 26 62 11z m-65 -175 c11 -13 10 -22 -3 -50 -13 -26 -24 -35 -52 -41 -60 -11 -64 9 -14 60 50 51 52 51 69 31z"/> <path d="M3497 12434 c-3 -4 -2 -15 3 -25 7 -11 6 -27 0 -44 -13 -34 -13 -35 4 -35 8 0 16 7 20 15 8 22 33 18 39 -5 3 -11 13 -20 22 -20 19 0 13 -34 -12 -62 -19 -22 -10 -49 29 -87 28 -27 38 -31 81 -29 37 2 51 -2 58 -15 6 -9 14 -17 19 -17 16 0 11 27 -5 34 -12 4 -12 11 6 41 17 28 19 42 12 72 -12 53 -38 58 -30 6 5 -26 2 -46 -7 -58 -12 -16 -14 -15 -36 16 -13 19 -30 38 -37 42 -17 11 -16 32 2 47 22 18 18 53 -8 78 -24 22 -47 29 -47 14 0 -5 9 -17 20 -27 22 -20 27 -65 7 -65 -20 0 -42 21 -63 60 -18 32 -52 69 -65 70 -3 0 -9 -3 -12 -6z m143 -183 c0 -5 11 -19 25 -32 33 -32 32 -49 -3 -49 -37 0 -73 38 -65 68 5 21 43 33 43 13z"/> <path d="M1824 13241 c-94 -24 -243 -145 -287 -233 -15 -29 -35 -69 -46 -88 -19 -34 -25 -47 -71 -155 -11 -27 -25 -58 -30 -67 -6 -10 -10 -23 -10 -29 0 -6 -6 -25 -13 -42 -14 -32 -34 -97 -61 -197 -32 -121 -41 -208 -41 -415 0 -279 24 -441 81 -558 29 -59 29 -69 6 -90 -26 -24 -47 -21 -76 10 -38 41 -83 188 -98 318 -15 142 -21 474 -9 550 34 208 74 363 120 470 5 11 19 45 31 75 35 86 80 180 106 222 29 45 30 63 7 87 -103 107 -292 32 -381 -151 -17 -37 -32 -73 -32 -79 0 -6 -6 -25 -13 -42 -42 -98 -68 -414 -48 -602 12 -125 30 -235 42 -257 5 -9 12 -36 15 -59 4 -24 13 -54 21 -68 7 -14 13 -34 13 -43 0 -9 6 -29 14 -45 41 -82 48 -101 44 -128 -2 -25 -8 -30 -34 -33 -26 -3 -36 3 -53 26 -12 17 -21 37 -21 45 0 9 -4 18 -9 21 -4 3 -18 36 -30 73 -12 37 -26 77 -32 88 -9 20 -18 58 -39 165 -6 30 -16 75 -21 100 -6 24 -13 88 -16 142 -3 54 -9 98 -13 98 -16 0 -59 -60 -74 -104 -20 -62 -20 -107 -1 -210 22 -111 85 -332 115 -401 5 -11 18 -42 30 -70 12 -27 27 -63 35 -80 8 -16 26 -57 41 -90 54 -120 127 -261 182 -350 32 -52 96 -149 102 -155 3 -3 29 -35 58 -71 182 -232 439 -369 689 -369 105 0 250 29 340 67 17 7 35 13 40 13 10 0 151 71 203 103 116 69 286 216 327 282 25 39 47 91 53 120 4 23 17 37 55 60 61 36 174 149 197 196 32 65 45 104 57 165 14 75 14 102 0 178 -39 210 -192 372 -392 415 -44 10 -70 23 -115 61 -31 27 -70 52 -87 56 -16 3 -35 10 -40 15 -22 17 -255 30 -344 19 -102 -13 -250 -57 -271 -80 -3 -3 -21 -15 -42 -27 -20 -12 -49 -33 -65 -46 -66 -59 -77 -67 -94 -67 -13 0 -20 11 -25 36 -9 51 1 268 16 329 50 202 85 277 195 412 87 107 120 185 119 283 -1 93 -23 135 -99 184 -33 22 -164 32 -221 17z m1178 -1298 c18 -16 25 -43 11 -43 -13 1 -53 38 -53 49 0 16 21 13 42 -6z m-97 -47 c136 -76 204 -194 205 -352 0 -179 -103 -315 -285 -377 -121 -42 -292 1 -386 97 -47 48 -66 81 -92 162 -21 66 -22 191 -2 230 8 16 15 39 15 50 0 20 72 125 102 150 37 29 116 69 152 76 23 4 83 5 135 3 84 -4 100 -8 156 -39z m180 -17 c4 -11 17 -25 30 -31 13 -6 26 -18 29 -27 13 -35 38 -71 48 -71 6 0 8 -10 4 -24 -4 -15 0 -28 10 -36 8 -7 12 -20 9 -28 -3 -8 -1 -20 4 -26 8 -10 12 -65 10 -156 -1 -14 -4 -29 -9 -35 -5 -5 -11 -27 -15 -48 -4 -21 -14 -41 -21 -44 -8 -3 -14 -15 -14 -27 0 -12 -9 -27 -20 -34 -11 -7 -20 -17 -20 -23 0 -15 -56 -66 -81 -74 -30 -10 -23 9 21 56 22 24 40 51 40 60 0 9 7 19 15 23 8 3 15 14 15 24 0 10 8 34 17 53 14 27 17 56 15 139 -4 141 -6 160 -14 160 -4 0 -17 20 -28 45 -12 26 -27 49 -35 52 -8 3 -15 15 -15 27 0 12 -9 25 -22 31 -32 15 -35 35 -5 35 17 0 28 -7 32 -21z m-812 -346 c4 -78 12 -133 24 -163 24 -61 70 -139 101 -172 13 -15 22 -33 19 -41 -7 -19 -75 -29 -131 -18 -64 12 -109 50 -145 122 -27 55 -31 72 -31 148 0 68 4 94 21 125 31 59 109 130 130 120 3 -2 9 -56 12 -121z m747 -368 c0 -16 -45 -21 -54 -6 -8 12 4 21 31 21 14 0 23 -6 23 -15z"/> <path d="M2725 11808 c-2 -7 -5 -22 -7 -33 -2 -13 -12 -21 -30 -23 -15 -2 -39 -17 -53 -33 -51 -62 -20 -168 55 -182 l30 -6 0 -80 c0 -44 -4 -82 -8 -85 -5 -3 -22 4 -39 14 -23 14 -35 32 -45 67 -9 30 -20 49 -31 51 -21 4 -22 -18 -4 -70 17 -49 53 -86 91 -96 28 -7 31 -13 34 -51 3 -33 7 -42 20 -39 12 2 17 13 17 36 1 33 17 52 44 52 8 0 28 12 43 27 24 22 28 35 28 77 0 59 -18 87 -74 119 -37 21 -38 23 -40 82 -1 56 1 60 22 63 17 3 25 -2 29 -17 3 -12 11 -21 17 -21 38 0 24 42 -24 75 -24 17 -40 37 -44 56 -6 30 -23 39 -31 17z m-5 -163 c0 -68 -2 -75 -19 -75 -47 0 -69 92 -31 130 39 39 50 27 50 -55z m101 -157 c25 -31 24 -71 -4 -104 -36 -42 -54 -27 -59 48 -3 35 -3 66 -1 71 9 15 45 6 64 -15z"/> <path d="M9965 12413 c-81 -10 -76 -1 -74 -124 1 -60 -2 -113 -5 -116 -4 -4 -61 -7 -129 -8 -117 -1 -125 -2 -187 -33 -36 -18 -79 -47 -97 -64 -86 -83 -125 -260 -89 -409 24 -106 94 -193 186 -236 52 -24 171 -53 216 -53 35 0 168 27 199 40 74 32 95 44 116 66 l24 26 3 416 c1 229 0 427 -3 439 -10 42 -82 67 -160 56z m-105 -438 c34 -17 32 -7 30 -255 -1 -134 -9 -149 -82 -157 -49 -6 -108 15 -141 49 -76 77 -74 251 2 327 45 45 140 63 191 36z"/> <path d="M7380 12353 c-52 -8 -108 -22 -125 -32 l-30 -17 -3 -415 c-2 -385 -1 -417 15 -436 27 -30 79 -49 173 -64 257 -40 486 14 561 131 28 44 42 145 29 204 -14 59 -76 131 -122 141 -39 9 -39 49 0 69 15 8 41 28 57 46 29 30 30 35 30 123 0 75 -4 98 -20 122 -47 71 -108 105 -237 129 -102 19 -197 19 -328 -1z m280 -188 c35 -18 70 -65 70 -95 0 -37 -29 -79 -66 -95 -23 -9 -68 -15 -119 -15 -96 0 -95 -2 -95 117 0 95 8 103 106 103 47 0 86 -6 104 -15z m46 -396 c23 -14 35 -30 40 -54 19 -104 -54 -161 -198 -153 -54 3 -73 8 -84 23 -18 24 -19 176 -2 193 8 8 47 12 111 12 83 0 105 -3 133 -21z"/> <path d="M12600 12301 l-25 -7 -3 -364 c-2 -315 0 -370 14 -405 33 -82 91 -121 197 -131 171 -15 247 20 247 115 0 35 -5 53 -20 66 -16 14 -23 16 -32 7 -17 -17 -81 -15 -120 4 -48 23 -58 53 -58 176 0 140 6 148 118 148 105 1 116 10 114 95 0 37 -6 73 -12 81 -9 10 -37 14 -104 14 -58 0 -96 4 -104 12 -7 7 -12 37 -12 68 0 30 -3 65 -6 76 -11 41 -120 66 -194 45z"/> <path d="M4935 12164 c-49 -8 -117 -36 -172 -70 -72 -46 -75 -59 -71 -374 4 -326 -2 -314 142 -318 l96 -3 0 265 c0 145 3 272 6 281 7 17 65 45 95 45 10 0 34 -7 53 -17 43 -20 69 -77 65 -143 -1 -25 -2 -121 -1 -213 2 -168 2 -168 28 -192 24 -23 35 -25 115 -25 l89 0 0 258 c0 141 3 267 6 278 6 22 70 54 107 54 28 0 75 -28 89 -53 9 -15 14 -93 18 -258 l5 -237 25 -21 c21 -17 39 -20 112 -21 l87 0 7 35 c3 20 4 151 2 293 -4 236 -6 260 -25 297 -28 54 -65 89 -121 117 -41 20 -63 23 -162 23 -116 0 -140 -6 -220 -50 -22 -12 -30 -10 -84 17 -53 27 -72 31 -161 33 -55 2 -113 1 -130 -1z"/> <path d="M10725 12161 c-65 -12 -154 -62 -190 -106 -48 -59 -64 -96 -77 -180 -26 -168 30 -319 144 -391 55 -35 176 -52 265 -37 80 14 98 6 89 -41 -16 -76 -118 -109 -274 -88 -47 6 -90 16 -96 22 -31 31 -86 -10 -86 -65 0 -58 38 -102 112 -129 74 -27 286 -26 361 2 73 28 95 40 132 78 72 73 70 61 73 453 3 393 5 380 -66 424 -73 45 -123 58 -237 62 -60 2 -128 0 -150 -4z m195 -186 c24 -12 30 -22 30 -48 0 -17 1 -81 2 -142 1 -126 -4 -150 -35 -159 -51 -14 -134 -6 -160 14 -54 42 -69 83 -66 169 4 71 7 83 35 117 47 59 133 80 194 49z"/> <path d="M11780 12161 c-102 -23 -190 -94 -237 -189 -26 -53 -28 -66 -28 -187 0 -128 1 -131 34 -198 54 -108 141 -169 286 -202 87 -19 99 -19 199 1 99 19 141 39 167 80 25 40 24 69 -2 106 -18 25 -26 28 -51 23 -16 -4 -41 -13 -56 -21 -18 -9 -61 -14 -125 -14 -106 0 -150 14 -195 63 -36 39 -26 61 33 70 28 4 89 14 136 22 47 8 100 15 118 15 55 0 145 30 169 56 50 56 11 210 -74 289 -45 42 -62 55 -71 55 -4 0 -21 7 -38 16 -34 18 -209 28 -265 15z m205 -197 c36 -37 44 -64 22 -82 -7 -6 -53 -16 -102 -22 -50 -6 -107 -14 -127 -17 -29 -4 -39 -1 -44 11 -10 26 16 84 52 116 31 27 42 30 100 30 61 0 66 -2 99 -36z"/> <path d="M6153 12143 c-39 -19 -39 -26 -13 -124 38 -146 65 -228 122 -379 23 -62 79 -150 109 -172 16 -12 29 -27 29 -32 0 -12 -72 -89 -139 -149 l-43 -39 14 -36 c28 -75 128 -105 215 -65 90 41 199 198 300 433 8 19 21 48 29 63 8 16 14 35 14 44 0 8 6 27 14 41 8 15 22 54 31 87 9 33 23 81 31 106 7 26 14 81 15 123 2 98 -14 115 -108 116 -80 0 -110 -14 -118 -54 -14 -73 -28 -134 -40 -176 -7 -25 -16 -64 -20 -87 -4 -24 -11 -45 -16 -49 -5 -3 -9 -16 -9 -29 0 -35 -41 -135 -55 -135 -13 0 -37 56 -54 125 -6 22 -18 65 -26 95 -9 30 -21 73 -27 95 -5 22 -13 47 -18 56 -5 9 -12 34 -16 55 -4 23 -19 53 -37 72 -28 29 -36 32 -91 31 -35 0 -75 -7 -93 -16z"/> <path d="M8338 12134 c-16 -5 -18 -25 -18 -227 0 -122 5 -251 10 -286 22 -133 101 -202 272 -235 96 -19 100 -19 200 -1 57 11 114 25 128 32 14 7 30 13 36 13 5 0 24 14 41 31 42 40 45 73 41 381 -3 241 -4 248 -25 270 -18 18 -37 23 -93 26 -38 2 -81 1 -95 -2 l-25 -6 0 -264 c0 -301 2 -295 -88 -304 -62 -5 -114 18 -142 63 -18 30 -20 49 -20 249 0 266 4 258 -122 262 -46 2 -91 1 -100 -2z"/> </g> </svg>